<svg width="408" height="497" viewBox="0 0 408 497" fill="none" xmlns="http://www.w3.org/2000/svg">
<rect x="21" y="128" width="366" height="254" fill="#2A2A2A"/>
<rect x="21" y="128" width="366" height="254" stroke="black" stroke-width="2"/>
<rect x="365" y="128" width="22" height="254" fill="#CC3F4F" stroke="black" stroke-width="2"/>
<rect x="387" y="80" width="14" height="46" fill="#AC3951" stroke="black" stroke-width="2"/>
<rect x="7" y="80" width="14" height="46" fill="#AC3951" stroke="black" stroke-width="2"/>
<rect x="21" y="128" width="22" height="254" fill="#CC3F4F" stroke="black" stroke-width="2"/>
<path d="M1.35 448L20.8461 384H387.258L406.652 448H1.35Z" fill="#FF893D" stroke="black" stroke-width="2"/>
<path d="M27.2714 448L42.7866 384H365.213L380.729 448H27.2714Z" fill="#FF893D" stroke="black" stroke-width="2"/>
<g filter="url(#filter0_i_10_52)">
<path d="M64.7529 388H343.247L357 444H51L64.7529 388Z" fill="#2A2A2A"/>
</g>
<path d="M52.2753 443L65.537 389H342.463L355.725 443H52.2753Z" stroke="black" stroke-width="2"/>
<rect x="21" y="80" width="366" height="46" fill="#AC3951" stroke="black" stroke-width="2"/>
<rect x="27" y="450" width="354" height="46" fill="#FF893D"/>
<rect x="27" y="450" width="354" height="46" fill="black" fill-opacity="0.2"/>
<rect x="27" y="450" width="354" height="46" stroke="black" stroke-width="2"/>
<rect x="381" y="450" width="26" height="46" fill="#FF893D"/>
<rect x="381" y="450" width="26" height="46" fill="black" fill-opacity="0.2"/>
<rect x="381" y="450" width="26" height="46" stroke="black" stroke-width="2"/>
<rect x="1" y="450" width="26" height="46" fill="#FF893D"/>
<rect x="1" y="450" width="26" height="46" fill="black" fill-opacity="0.2"/>
<rect x="1" y="450" width="26" height="46" stroke="black" stroke-width="2"/>
<g filter="url(#filter1_f_10_52)">
<rect x="20" y="127" width="368" height="16" fill="black" fill-opacity="0.2"/>
</g>
<path d="M296.5 405C296.5 406.661 295.242 408.278 292.955 409.51C290.689 410.73 287.524 411.5 284 411.5C280.476 411.5 277.311 410.73 275.045 409.51C272.758 408.278 271.5 406.661 271.5 405C271.5 403.339 272.758 401.722 275.045 400.49C277.311 399.27 280.476 398.5 284 398.5C287.524 398.5 290.689 399.27 292.955 400.49C295.242 401.722 296.5 403.339 296.5 405Z" fill="#FFC766"/>
<path d="M296.5 405C296.5 406.661 295.242 408.278 292.955 409.51C290.689 410.73 287.524 411.5 284 411.5C280.476 411.5 277.311 410.73 275.045 409.51C272.758 408.278 271.5 406.661 271.5 405C271.5 403.339 272.758 401.722 275.045 400.49C277.311 399.27 280.476 398.5 284 398.5C287.524 398.5 290.689 399.27 292.955 400.49C295.242 401.722 296.5 403.339 296.5 405Z" fill="black" fill-opacity="0.2"/>
<path d="M296.5 405C296.5 406.661 295.242 408.278 292.955 409.51C290.689 410.73 287.524 411.5 284 411.5C280.476 411.5 277.311 410.73 275.045 409.51C272.758 408.278 271.5 406.661 271.5 405C271.5 403.339 272.758 401.722 275.045 400.49C277.311 399.27 280.476 398.5 284 398.5C287.524 398.5 290.689 399.27 292.955 400.49C295.242 401.722 296.5 403.339 296.5 405Z" stroke="black"/>
<path d="M296.5 402C296.5 403.661 295.242 405.278 292.955 406.51C290.689 407.73 287.524 408.5 284 408.5C280.476 408.5 277.311 407.73 275.045 406.51C272.758 405.278 271.5 403.661 271.5 402C271.5 400.339 272.758 398.722 275.045 397.49C277.311 396.27 280.476 395.5 284 395.5C287.524 395.5 290.689 396.27 292.955 397.49C295.242 398.722 296.5 400.339 296.5 402Z" fill="#FFC766" stroke="black"/>
<rect x="271" y="402" width="1" height="3" fill="black"/>
<rect x="296" y="402" width="1" height="3" fill="black"/>
<path d="M273.5 417C273.5 418.661 272.242 420.278 269.955 421.51C267.689 422.73 264.524 423.5 261 423.5C257.476 423.5 254.311 422.73 252.045 421.51C249.758 420.278 248.5 418.661 248.5 417C248.5 415.339 249.758 413.722 252.045 412.49C254.311 411.27 257.476 410.5 261 410.5C264.524 410.5 267.689 411.27 269.955 412.49C272.242 413.722 273.5 415.339 273.5 417Z" fill="#CC3F4F"/>
<path d="M273.5 417C273.5 418.661 272.242 420.278 269.955 421.51C267.689 422.73 264.524 423.5 261 423.5C257.476 423.5 254.311 422.73 252.045 421.51C249.758 420.278 248.5 418.661 248.5 417C248.5 415.339 249.758 413.722 252.045 412.49C254.311 411.27 257.476 410.5 261 410.5C264.524 410.5 267.689 411.27 269.955 412.49C272.242 413.722 273.5 415.339 273.5 417Z" fill="black" fill-opacity="0.2"/>
<path d="M273.5 417C273.5 418.661 272.242 420.278 269.955 421.51C267.689 422.73 264.524 423.5 261 423.5C257.476 423.5 254.311 422.73 252.045 421.51C249.758 420.278 248.5 418.661 248.5 417C248.5 415.339 249.758 413.722 252.045 412.49C254.311 411.27 257.476 410.5 261 410.5C264.524 410.5 267.689 411.27 269.955 412.49C272.242 413.722 273.5 415.339 273.5 417Z" stroke="black"/>
<path d="M273.5 414C273.5 415.661 272.242 417.278 269.955 418.51C267.689 419.73 264.524 420.5 261 420.5C257.476 420.5 254.311 419.73 252.045 418.51C249.758 417.278 248.5 415.661 248.5 414C248.5 412.339 249.758 410.722 252.045 409.49C254.311 408.27 257.476 407.5 261 407.5C264.524 407.5 267.689 408.27 269.955 409.49C272.242 410.722 273.5 412.339 273.5 414Z" fill="#CC3F4F" stroke="black"/>
<rect x="248" y="414" width="1" height="3" fill="black"/>
<rect x="273" y="414" width="1" height="3" fill="black"/>
<path d="M319.5 416C319.5 417.661 318.242 419.278 315.955 420.51C313.689 421.73 310.524 422.5 307 422.5C303.476 422.5 300.311 421.73 298.045 420.51C295.758 419.278 294.5 417.661 294.5 416C294.5 414.339 295.758 412.722 298.045 411.49C300.311 410.27 303.476 409.5 307 409.5C310.524 409.5 313.689 410.27 315.955 411.49C318.242 412.722 319.5 414.339 319.5 416Z" fill="#CC3F4F"/>
<path d="M319.5 416C319.5 417.661 318.242 419.278 315.955 420.51C313.689 421.73 310.524 422.5 307 422.5C303.476 422.5 300.311 421.73 298.045 420.51C295.758 419.278 294.5 417.661 294.5 416C294.5 414.339 295.758 412.722 298.045 411.49C300.311 410.27 303.476 409.5 307 409.5C310.524 409.5 313.689 410.27 315.955 411.49C318.242 412.722 319.5 414.339 319.5 416Z" fill="black" fill-opacity="0.2"/>
<path d="M319.5 416C319.5 417.661 318.242 419.278 315.955 420.51C313.689 421.73 310.524 422.5 307 422.5C303.476 422.5 300.311 421.73 298.045 420.51C295.758 419.278 294.5 417.661 294.5 416C294.5 414.339 295.758 412.722 298.045 411.49C300.311 410.27 303.476 409.5 307 409.5C310.524 409.5 313.689 410.27 315.955 411.49C318.242 412.722 319.5 414.339 319.5 416Z" stroke="black"/>
<path d="M319.5 413C319.5 414.661 318.242 416.278 315.955 417.51C313.689 418.73 310.524 419.5 307 419.5C303.476 419.5 300.311 418.73 298.045 417.51C295.758 416.278 294.5 414.661 294.5 413C294.5 411.339 295.758 409.722 298.045 408.49C300.311 407.27 303.476 406.5 307 406.5C310.524 406.5 313.689 407.27 315.955 408.49C318.242 409.722 319.5 411.339 319.5 413Z" fill="#CC3F4F" stroke="black"/>
<rect x="294" y="413" width="1" height="3" fill="black"/>
<rect x="319" y="413" width="1" height="3" fill="black"/>
<path d="M297.5 429C297.5 430.661 296.242 432.278 293.955 433.51C291.689 434.73 288.524 435.5 285 435.5C281.476 435.5 278.311 434.73 276.045 433.51C273.758 432.278 272.5 430.661 272.5 429C272.5 427.339 273.758 425.722 276.045 424.49C278.311 423.27 281.476 422.5 285 422.5C288.524 422.5 291.689 423.27 293.955 424.49C296.242 425.722 297.5 427.339 297.5 429Z" fill="#FFC766"/>
<path d="M297.5 429C297.5 430.661 296.242 432.278 293.955 433.51C291.689 434.73 288.524 435.5 285 435.5C281.476 435.5 278.311 434.73 276.045 433.51C273.758 432.278 272.5 430.661 272.5 429C272.5 427.339 273.758 425.722 276.045 424.49C278.311 423.27 281.476 422.5 285 422.5C288.524 422.5 291.689 423.27 293.955 424.49C296.242 425.722 297.5 427.339 297.5 429Z" fill="black" fill-opacity="0.2"/>
<path d="M297.5 429C297.5 430.661 296.242 432.278 293.955 433.51C291.689 434.73 288.524 435.5 285 435.5C281.476 435.5 278.311 434.73 276.045 433.51C273.758 432.278 272.5 430.661 272.5 429C272.5 427.339 273.758 425.722 276.045 424.49C278.311 423.27 281.476 422.5 285 422.5C288.524 422.5 291.689 423.27 293.955 424.49C296.242 425.722 297.5 427.339 297.5 429Z" stroke="black"/>
<path d="M297.5 426C297.5 427.661 296.242 429.278 293.955 430.51C291.689 431.73 288.524 432.5 285 432.5C281.476 432.5 278.311 431.73 276.045 430.51C273.758 429.278 272.5 427.661 272.5 426C272.5 424.339 273.758 422.722 276.045 421.49C278.311 420.27 281.476 419.5 285 419.5C288.524 419.5 291.689 420.27 293.955 421.49C296.242 422.722 297.5 424.339 297.5 426Z" fill="#FFC766" stroke="black"/>
<rect x="272" y="426" width="1" height="3" fill="black"/>
<rect x="297" y="426" width="1" height="3" fill="black"/>
<path d="M115.597 400.125C115.768 399.463 116.365 399 117.049 399H130.951C131.635 399 132.232 399.463 132.403 400.125L135.371 411.625C135.616 412.575 134.899 413.5 133.918 413.5H114.082C113.101 413.5 112.384 412.575 112.629 411.625L115.597 400.125Z" fill="#FFC766" stroke="black"/>
<mask id="path-32-inside-1_10_52" fill="white">
<path fill-rule="evenodd" clip-rule="evenodd" d="M133.101 399.272C132.722 398.785 132.139 398.5 131.522 398.5H116.328C115.798 398.5 115.289 398.711 114.914 399.086L111.362 402.638C111.125 402.875 110.951 403.169 110.857 403.492L104.747 424.44C104.373 425.72 105.333 427 106.667 427H141.225C142.59 427 143.554 425.663 143.123 424.368L136.108 403.325C136.037 403.11 135.929 402.909 135.79 402.73L133.101 399.272Z"/>
</mask>
<path fill-rule="evenodd" clip-rule="evenodd" d="M133.101 399.272C132.722 398.785 132.139 398.5 131.522 398.5H116.328C115.798 398.5 115.289 398.711 114.914 399.086L111.362 402.638C111.125 402.875 110.951 403.169 110.857 403.492L104.747 424.44C104.373 425.72 105.333 427 106.667 427H141.225C142.59 427 143.554 425.663 143.123 424.368L136.108 403.325C136.037 403.11 135.929 402.909 135.79 402.73L133.101 399.272Z" fill="#FFC766"/>
<path d="M136.108 403.325L135.16 403.641L136.108 403.325ZM135.79 402.73L136.579 402.116L135.79 402.73ZM143.123 424.368L142.174 424.684L143.123 424.368ZM110.857 403.492L111.817 403.772L110.857 403.492ZM133.101 399.272L132.311 399.886L133.101 399.272ZM114.914 399.086L114.207 398.379L114.914 399.086ZM116.328 399.5H131.522V397.5H116.328V399.5ZM112.069 403.345L115.621 399.793L114.207 398.379L110.655 401.931L112.069 403.345ZM105.707 424.72L111.817 403.772L109.897 403.212L103.787 424.16L105.707 424.72ZM141.225 426H106.667V428H141.225V426ZM135.16 403.641L142.174 424.684L144.071 424.051L137.057 403.009L135.16 403.641ZM132.311 399.886L135 403.344L136.579 402.116L133.89 398.658L132.311 399.886ZM137.057 403.009C136.949 402.686 136.788 402.384 136.579 402.116L135 403.344C135.07 403.433 135.124 403.534 135.16 403.641L137.057 403.009ZM141.225 428C143.273 428 144.719 425.994 144.071 424.051L142.174 424.684C142.39 425.331 141.908 426 141.225 426V428ZM103.787 424.16C103.227 426.08 104.667 428 106.667 428V426C106 426 105.52 425.36 105.707 424.72L103.787 424.16ZM110.655 401.931C110.299 402.287 110.038 402.728 109.897 403.212L111.817 403.772C111.864 403.611 111.951 403.464 112.069 403.345L110.655 401.931ZM131.522 399.5C131.83 399.5 132.122 399.642 132.311 399.886L133.89 398.658C133.322 397.927 132.448 397.5 131.522 397.5V399.5ZM116.328 397.5C115.533 397.5 114.77 397.816 114.207 398.379L115.621 399.793C115.809 399.605 116.063 399.5 116.328 399.5V397.5Z" fill="black" mask="url(#path-32-inside-1_10_52)"/>
<path d="M112.166 413.5L116.375 399H131.625L135.834 413.5H112.166Z" fill="#FFC766" stroke="black"/>
<rect x="123" y="382" width="2" height="24" fill="black"/>
<circle cx="124" cy="371" r="11.5" fill="url(#paint0_radial_10_52)" stroke="black"/>
<path d="M111.858 414.256C112.125 413.788 112.622 413.5 113.161 413.5H134.839C135.378 413.5 135.875 413.788 136.142 414.256L136.576 414.008L136.142 414.256L141.856 424.256C142.427 425.256 141.705 426.5 140.554 426.5H107.446C106.295 426.5 105.573 425.256 106.144 424.256L111.858 414.256Z" fill="#FFC766" stroke="black"/>
<defs>
<filter id="filter0_i_10_52" x="51" y="388" width="306" height="56" filterUnits="userSpaceOnUse" color-interpolation-filters="sRGB">
<feFlood flood-opacity="0" result="BackgroundImageFix"/>
<feBlend mode="normal" in="SourceGraphic" in2="BackgroundImageFix" result="shape"/>
<feColorMatrix in="SourceAlpha" type="matrix" values="0 0 0 0 0 0 0 0 0 0 0 0 0 0 0 0 0 0 127 0" result="hardAlpha"/>
<feOffset/>
<feGaussianBlur stdDeviation="3.1"/>
<feComposite in2="hardAlpha" operator="arithmetic" k2="-1" k3="1"/>
<feColorMatrix type="matrix" values="0 0 0 0 0 0 0 0 0 0 0 0 0 0 0 0 0 0 1 0"/>
<feBlend mode="normal" in2="shape" result="effect1_innerShadow_10_52"/>
</filter>
<filter id="filter1_f_10_52" x="16" y="123" width="376" height="24" filterUnits="userSpaceOnUse" color-interpolation-filters="sRGB">
<feFlood flood-opacity="0" result="BackgroundImageFix"/>
<feBlend mode="normal" in="SourceGraphic" in2="BackgroundImageFix" result="shape"/>
<feGaussianBlur stdDeviation="2" result="effect1_foregroundBlur_10_52"/>
</filter>
<radialGradient id="paint0_radial_10_52" cx="0" cy="0" r="1" gradientUnits="userSpaceOnUse" gradientTransform="translate(126 366.5) rotate(99.4623) scale(6.08276)">
<stop offset="1" stop-color="#CC3F4F"/>
</radialGradient>
</defs>
</svg>
